<svg width="32" height="32" viewBox="0 0 32 32" fill="none" xmlns="http://www.w3.org/2000/svg">
  <!-- Background Circle -->
  <circle cx="16" cy="16" r="15" fill="#f8fafc" stroke="#334155" stroke-width="1"/>
  
  <!-- Digital Chip Base -->
  <rect x="6" y="12" width="20" height="12" rx="2" fill="#475569" stroke="#1e293b" stroke-width="0.5"/>
  
  <!-- Chip Pins -->
  <rect x="4" y="14" width="2" height="1" fill="#64748b"/>
  <rect x="4" y="16" width="2" height="1" fill="#64748b"/>
  <rect x="4" y="18" width="2" height="1" fill="#64748b"/>
  <rect x="4" y="20" width="2" height="1" fill="#64748b"/>
  <rect x="26" y="14" width="2" height="1" fill="#64748b"/>
  <rect x="26" y="16" width="2" height="1" fill="#64748b"/>
  <rect x="26" y="18" width="2" height="1" fill="#64748b"/>
  <rect x="26" y="20" width="2" height="1" fill="#64748b"/>
  
  <!-- Digital Mandi Shop -->
  <rect x="8" y="8" width="16" height="8" rx="1" fill="#1e40af" stroke="#1e3a8a" stroke-width="0.5"/>
  
  <!-- Shop Awning (Tricolor) -->
  <path d="M7 8 L25 8 L24 6 L8 6 Z" fill="#ff9933"/>
  <path d="M8 6 L24 6 L23 4 L9 4 Z" fill="#ffffff" stroke="#e5e7eb" stroke-width="0.3"/>
  <path d="M9 4 L23 4 L22 2 L10 2 Z" fill="#138808"/>
  
  <!-- Produce Basket -->
  <ellipse cx="16" cy="14" rx="6" ry="3" fill="#d97706" stroke="#92400e" stroke-width="0.5"/>
  
  <!-- Fruits and Vegetables -->
  <!-- Apple -->
  <circle cx="13" cy="12" r="1.5" fill="#dc2626"/>
  <path d="M13 10.5 Q13.5 10 14 10.5" stroke="#22c55e" stroke-width="0.3" fill="none"/>
  
  <!-- Orange/Mango -->
  <circle cx="16" cy="11.5" r="1.3" fill="#f59e0b"/>
  
  <!-- Leafy Green -->
  <ellipse cx="19" cy="12.5" rx="1.2" ry="1.8" fill="#22c55e"/>
  <path d="M18 11 Q19 10.5 20 11" stroke="#16a34a" stroke-width="0.3" fill="none"/>
  
  <!-- Language Symbols -->
  <!-- Hindi अ -->
  <text x="8" y="6" font-family="serif" font-size="3" fill="#1e40af" font-weight="bold">अ</text>
  
  <!-- Telugu అ -->
  <text x="22" y="6" font-family="serif" font-size="3" fill="#dc2626" font-weight="bold">అ</text>
  
  <!-- Rupee Symbol -->
  <circle cx="6" cy="26" r="3" fill="#f8fafc" stroke="#475569" stroke-width="0.5"/>
  <text x="6" y="28" font-family="serif" font-size="3" fill="#1e40af" font-weight="bold" text-anchor="middle">₹</text>
  
  <!-- Voice/Sound Waves -->
  <circle cx="26" cy="26" r="3" fill="#f8fafc" stroke="#475569" stroke-width="0.5"/>
  <path d="M24 26 Q25 25 26 26 Q25 27 24 26" fill="#ff9933"/>
  <path d="M26.5 25.5 Q27.5 24.5 28.5 25.5 Q27.5 26.5 26.5 25.5" fill="#ff9933" opacity="0.7"/>
  
  <!-- Digital Circuit Lines -->
  <line x1="6" y1="23" x2="26" y2="23" stroke="#3b82f6" stroke-width="0.3" opacity="0.5"/>
  <line x1="16" y1="16" x2="16" y2="23" stroke="#3b82f6" stroke-width="0.3" opacity="0.5"/>
  
  <!-- Corner Decorative Elements -->
  <circle cx="4" cy="4" r="1" fill="#ff9933" opacity="0.6"/>
  <circle cx="28" cy="4" r="1" fill="#138808" opacity="0.6"/>
  <circle cx="4" cy="28" r="1" fill="#138808" opacity="0.6"/>
  <circle cx="28" cy="28" r="1" fill="#ff9933" opacity="0.6"/>
</svg>